<?xml version="1.0" encoding="UTF-8" standalone="no"?>
<!DOCTYPE svg PUBLIC "-//W3C//DTD SVG 1.1//EN" "http://www.w3.org/Graphics/SVG/1.1/DTD/svg11.dtd">
<svg width="100%" height="100%" viewBox="0 0 48 48" version="1.1" xmlns="http://www.w3.org/2000/svg" xmlns:xlink="http://www.w3.org/1999/xlink" xml:space="preserve" xmlns:serif="http://www.serif.com/" style="fill-rule:evenodd;clip-rule:evenodd;stroke-linejoin:round;stroke-miterlimit:2;">
    <path d="M28.102,5.502L37.972,11.202C39.604,9.484 42.318,9.416 44.036,11.048C44.332,11.328 44.584,11.65 44.79,12.002C45.968,14.058 45.254,16.68 43.198,17.858C42.85,18.058 42.476,18.208 42.082,18.304L42.082,29.702C44.374,30.248 45.79,32.548 45.242,34.84C45.146,35.248 44.988,35.64 44.778,36.002C43.594,38.048 40.976,38.75 38.924,37.566C38.532,37.34 38.174,37.048 37.872,36.708L28.062,42.372C28.806,44.62 27.586,47.042 25.34,47.784C24.906,47.926 24.456,48 24,48C21.638,48.002 19.722,46.09 19.72,43.728C19.72,43.318 19.778,42.908 19.896,42.51L10.024,36.816C8.392,38.524 5.682,38.59 3.972,36.956C2.264,35.324 2.2,32.614 3.832,30.904C4.398,30.31 5.124,29.892 5.92,29.698L5.922,18.3C3.622,17.748 2.206,15.434 2.76,13.132C2.854,12.736 3.006,12.354 3.208,12C4.392,9.952 7.012,9.252 9.062,10.436C9.416,10.638 9.74,10.892 10.022,11.19L19.898,5.49C19.226,3.224 20.52,0.846 22.78,0.176C23.174,0.058 23.588,0 24,0C26.362,-0.002 28.278,1.908 28.28,4.268C28.282,4.686 28.22,5.104 28.102,5.502ZM27.072,7.256C27.034,7.298 26.998,7.334 26.956,7.372L39.878,29.752C39.93,29.734 39.99,29.72 40.042,29.706L40.042,18.292C37.752,17.726 36.358,15.408 36.926,13.116C36.938,13.068 36.95,13.018 36.964,12.972L27.072,7.256ZM21.042,7.374L20.922,7.254L11.03,12.958C11.684,15.228 10.376,17.594 8.108,18.248C8.056,18.264 8.006,18.276 7.956,18.29L7.956,29.706L8.124,29.752L21.046,7.372L21.042,7.374ZM25.194,8.388C24.414,8.612 23.588,8.612 22.81,8.388L9.89,30.766C10.478,31.332 10.894,32.056 11.09,32.848L36.912,32.848C37.106,32.052 37.526,31.326 38.118,30.76L25.194,8.388ZM27.166,40.842L36.992,35.166C36.962,35.072 36.938,34.978 36.916,34.882L11.084,34.882L11.042,35.048L20.92,40.752C21.696,39.944 22.788,39.446 24,39.446C25.254,39.446 26.38,39.984 27.166,40.842Z" style="fill:white;fill-rule:nonzero;"/>
</svg>
